# xmcd
#
# Track frame offsets:
#	150
#	16353
#	32854
#	47312
#	60949
#	76637
#	87614
#	106365
#	121260
#	139696
#	157332
#	174805
#	191834
#	208338
#	220990
#	236642
#	253871
#	266780
#	281503
#	294792
#
# Disc length: 4113
#
# Revision: 4
# Processed by: cddbd v1.5.1PL0 Copyright (c) Steve Scherf et al.
# Submitted via: FreeRIP 2.60 
# Normalized: r3:DSETVAR1,TDELIM( - )
#
DISCID=20100f14
DTITLE=Various Artist - Promo Only Country Radio April 2002
DYEAR=2002
DGENRE=Country
TTITLE0=George Strait - Living and Living Well
TTITLE1=Montgomery Gentry - Didn't I
TTITLE2=Shedaisy - Get Over Yourself
TTITLE3=Tracy Byrd - Ten Rounds With Jose Cuervo
TTITLE4=Darryl Worley - I Miss My Friend
TTITLE5=Dixie Chicks - Some Days You Gotta Dance
TTITLE6=Willie Nelson and LeAnn Womack - Mendocino County Line
TTITLE7=JoAnna Janet - Since I've Seen You Last
TTITLE8=Gabbie Nolan - Almost There
TTITLE9=Kenny Rodgers - Harder Cards
TTITLE10=Joe Diffie - This Pretender
TTITLE11=Rhett Akins - Highway Sunrise
TTITLE12=Blake Shelton - Ol' Red
TTITLE13=Little Big Town - Don't Waste My Time
TTITLE14=Leslie Satcher - The Slow Way Home
TTITLE15=George Jones - 50,000 Names
TTITLE16=Trini Triggs - You Never Can Tell
TTITLE17=Tony Martin - Ridin With The Legend
TTITLE18=Wayne Warner - 10,000 Tears Ago
TTITLE19=Marie Sisters - Real Bad Mood
EXTD=
EXTT0=
EXTT1=
EXTT2=
EXTT3=
EXTT4=
EXTT5=
EXTT6=
EXTT7=
EXTT8=
EXTT9=
EXTT10=
EXTT11=
EXTT12=
EXTT13=
EXTT14=
EXTT15=
EXTT16=
EXTT17=
EXTT18=
EXTT19=
PLAYORDER=
